<svg width="344" height="269" viewBox="0 0 344 269" fill="none" xmlns="http://www.w3.org/2000/svg">
<g clip-path="url(#clip0_206_189)">
<rect width="344" height="362" rx="30" fill="#F8FBF8"/>
<rect width="380" height="400" rx="30" fill="#FF404D"/>
<path d="M118.95 156.732V150.831C118.95 149.283 120.201 148.031 121.739 148.031H143.677C144.416 148.031 145.125 148.326 145.647 148.852C146.169 149.378 146.46 150.091 146.46 150.831V250.437C146.46 251.184 146.169 251.897 145.647 252.419C145.125 252.942 144.416 253.237 143.677 253.234H121.739C121 253.237 120.292 252.942 119.767 252.419C119.245 251.893 118.953 251.181 118.953 250.441V245.547C110.25 254.052 98.513 255.725 85.7866 255.725C55.6431 255.721 33.4947 230.835 33.4947 200.658C33.4947 170.487 55.6058 145.594 85.79 145.594C98.5164 145.594 110.25 148.197 118.95 156.732ZM118.95 214.27V187.042C114.141 176.871 103.536 170.128 91.2161 170.287C74.5616 170.494 60.9743 184.812 61.4014 201.516C61.8284 218.22 74.826 231.039 91.6364 231.039C103.773 231.039 114.191 224.333 118.95 214.27ZM197.755 200.906L159.41 250.173C158.969 250.736 158.892 251.5 159.203 252.141C159.515 252.786 160.166 253.193 160.878 253.19H188.408C190.269 253.19 192.024 252.331 193.17 250.858L214.908 222.928L236.657 250.858C237.802 252.331 239.554 253.19 241.415 253.19H268.945C269.657 253.19 270.308 252.782 270.62 252.141C270.932 251.5 270.85 250.736 270.416 250.173L232.027 200.906L270.81 151.072C271.25 150.508 271.328 149.748 271.016 149.103C270.704 148.459 270.054 148.055 269.342 148.058H241.812C239.951 148.058 238.195 148.917 237.05 150.386L214.878 178.88L197.752 200.906H197.755ZM206.008 168.105C206.272 167.766 206.272 167.29 206.008 166.951L192.716 150.298C191.563 148.835 189.808 147.983 187.95 147.994H160.42C159.708 147.994 159.061 148.401 158.749 149.046C158.437 149.684 158.519 150.447 158.956 151.011L188.577 188.695C188.754 188.919 189.021 189.051 189.31 189.051C189.594 189.051 189.865 188.919 190.042 188.695L206.008 168.105ZM308.016 134.31C308.755 134.31 309.463 134.015 309.989 133.489C310.511 132.963 310.802 132.25 310.802 131.507V108.657C310.802 107.625 309.972 106.79 308.948 106.79H302.946C302.207 106.79 301.519 107.16 301.102 107.774L283.553 130.322C282.723 131.561 282.79 134.347 285.339 134.347L308.016 134.31Z" fill="#F0EBE3"/>
<path d="M304.034 147.946H290.108C286.351 147.946 283.306 150.995 283.306 154.757V246.378C283.306 250.14 286.351 253.189 290.108 253.189H304.034C307.791 253.189 310.836 250.14 310.836 246.378V154.757C310.836 150.995 307.791 147.946 304.034 147.946Z" fill="#F0EBE3"/>
</g>
<defs>
<clipPath id="clip0_206_189">
<rect width="344" height="362" rx="30" fill="white"/>
</clipPath>
</defs>
</svg>
