<svg width="1279" height="472" viewBox="0 0 1279 472" fill="none" xmlns="http://www.w3.org/2000/svg">
<g clip-path="url(#clip0_193_91)">
<path d="M-50.5 467.5L538.5 286.5L660.5 379L1535.5 -149" stroke="#E0E0E0"/>
<path d="M-194 1013.5L395 832.5L517 925L1392 397" stroke="#E0E0E0"/>
<path d="M-139 1068.5L450 887.5L572 980L1447 452" stroke="#E0E0E0"/>
<path d="M-50.5 421.5L538.5 240.5L660.5 333L1535.5 -195" stroke="#E0E0E0"/>
<path d="M-38.5 369.5L550.5 188.5L672.5 281L1547.5 -247" stroke="#E0E0E0"/>
<path d="M-38.5 308.5L550.5 127.5L672.5 220L1547.5 -308" stroke="#E0E0E0"/>
<path d="M-38.5 256.5L550.5 75.5L672.5 168L1547.5 -360" stroke="#E0E0E0"/>
<path d="M-38.5 203.5L550.5 22.5L672.5 115L1547.5 -413" stroke="#E0E0E0"/>
<path d="M-38.5 148.5L550.5 -32.5L672.5 60L1547.5 -468" stroke="#E0E0E0"/>
<path d="M-38.5 112.5L550.5 -68.5L672.5 24L1547.5 -504" stroke="#E0E0E0"/>
<path d="M-38.5 61.5L550.5 -119.5L672.5 -27L1547.5 -555" stroke="#E0E0E0"/>
<path d="M-62.5 518.5L526.5 337.5L648.5 430L1523.5 -98" stroke="#E0E0E0"/>
<path d="M131 655.5L720 474.5L842 567L1717 39" stroke="#E0E0E0"/>
<path d="M162 692.5L751 511.5L873 604L1748 76" stroke="#E0E0E0"/>
<path d="M193 730.5L782 549.5L904 642L1779 114" stroke="#E0E0E0"/>
<path d="M-50.5 610.5L538.5 429.5L660.5 522L1535.5 -6" stroke="#E0E0E0"/>
<path d="M-38.5 655.5L550.5 474.5L672.5 567L1547.5 39" stroke="#E0E0E0"/>
<path d="M-24.5 700.5L564.5 519.5L686.5 612L1561.5 84" stroke="#E0E0E0"/>
<path d="M-62 565.5L527 384.5L649 477L1524 -51" stroke="#E0E0E0"/>
</g>
<defs>
<clipPath id="clip0_193_91">
<rect width="1279" height="472" fill="white"/>
</clipPath>
</defs>
</svg>
