<svg width="155" height="50" viewBox="0 0 155 50" fill="none" xmlns="http://www.w3.org/2000/svg">
<path d="M12.7182 17.8151C12.7182 21.5007 12.7276 25.1874 12.7182 28.873C12.7123 30.3402 12.1994 31.6207 11.2381 32.7464C9.81197 34.4084 7.99267 35.0856 5.85293 34.9636C4.59702 34.892 3.47257 34.4201 2.47724 33.649C1.30349 32.7417 0.573421 31.548 0.216603 30.1207C0.0799561 29.5701 0.0109783 29.0048 0.0111974 28.4375C0.00180739 20.9185 -0.0122756 13.4007 0.0205893 5.88284C0.026458 4.47435 0.630937 3.24309 1.5535 2.18319C2.41791 1.18775 3.57541 0.491694 4.85994 0.194873C6.54896 -0.219459 8.13939 0.0551955 9.61831 0.937852C11.2615 1.92028 12.2604 3.37103 12.5879 5.26311C12.6662 5.67813 12.709 6.09907 12.7158 6.52136C12.7217 10.2832 12.717 14.0486 12.7182 17.8151Z" fill="#00FFD1"/>
<path d="M38.0218 6.54367C38.0218 4.49666 38.0218 2.45043 38.0218 0.404978C38.0218 0.103326 37.9596 -0.00230933 37.6333 3.81628e-05C35.5569 0.0152969 33.4806 3.75899e-05 31.4042 0.0141225C31.0625 0.0279354 30.7227 0.0723244 30.3889 0.146756C29.0223 0.400089 27.7815 1.1078 26.8677 2.15503C25.8923 3.2384 25.3136 4.50839 25.3089 5.96032C25.2878 14.1319 25.3019 22.3036 25.2949 30.4752C25.292 30.937 25.2484 31.3978 25.1646 31.852C25.0249 32.629 24.8218 33.3919 24.6117 34.1549C24.0757 36.0943 23.2196 37.9306 22.0788 39.5881C20.6282 41.7104 18.7523 43.5079 16.57 44.8665C14.3878 46.2252 11.9469 47.1153 9.40234 47.4804C9.41887 47.5336 9.44815 47.5819 9.48763 47.6212C9.52711 47.6605 9.5756 47.6895 9.62888 47.7057C12.214 49.1041 15.0884 49.8832 18.0259 49.9816C18.9142 50.0174 19.8038 50.0009 20.6903 49.9323C21.8326 49.8437 22.9657 49.6604 24.0777 49.3842C27.0895 48.6295 29.7117 47.147 32.011 45.0777C33.8999 43.3323 35.4076 41.2153 36.4395 38.8595C37.4715 36.5038 38.0053 33.9602 38.0077 31.3883C38.0218 27.0846 38.0276 22.7785 38.0253 18.4701H44.6581C45.5905 18.4701 46.5137 18.2864 47.375 17.9296C48.2364 17.5728 49.019 17.0498 49.6782 16.3905C50.3374 15.7312 50.8602 14.9485 51.2169 14.0871C51.5736 13.2257 51.7571 12.3024 51.7569 11.3701V6.54367H38.0218Z" fill="#313131"/>
<path d="M65.132 19.88V26.968C65.132 27.8107 65.3507 28.4453 65.788 28.872C66.236 29.2987 66.8547 29.512 67.644 29.512C68.444 29.512 69.0627 29.2987 69.5 28.872C69.948 28.4453 70.172 27.8107 70.172 26.968V19.88H71.996V26.936C71.996 27.8427 71.7987 28.6107 71.404 29.24C71.0094 29.8693 70.4814 30.3387 69.82 30.648C69.1587 30.9573 68.428 31.112 67.628 31.112C66.828 31.112 66.0974 30.9573 65.436 30.648C64.7854 30.3387 64.268 29.8693 63.884 29.24C63.5 28.6107 63.308 27.8427 63.308 26.936V19.88H65.132ZM78.8189 22.04C79.5122 22.04 80.1309 22.184 80.6749 22.472C81.2296 22.76 81.6616 23.1867 81.9709 23.752C82.2802 24.3173 82.4349 25 82.4349 25.8V31H80.6269V26.072C80.6269 25.2827 80.4296 24.68 80.0349 24.264C79.6402 23.8373 79.1016 23.624 78.4189 23.624C77.7362 23.624 77.1922 23.8373 76.7869 24.264C76.3922 24.68 76.1949 25.2827 76.1949 26.072V31H74.3709V22.184H76.1949V23.192C76.4936 22.8293 76.8722 22.5467 77.3309 22.344C77.8002 22.1413 78.2962 22.04 78.8189 22.04ZM85.6895 21.016C85.3589 21.016 85.0815 20.904 84.8575 20.68C84.6335 20.456 84.5215 20.1787 84.5215 19.848C84.5215 19.5173 84.6335 19.24 84.8575 19.016C85.0815 18.792 85.3589 18.68 85.6895 18.68C86.0095 18.68 86.2815 18.792 86.5055 19.016C86.7295 19.24 86.8415 19.5173 86.8415 19.848C86.8415 20.1787 86.7295 20.456 86.5055 20.68C86.2815 20.904 86.0095 21.016 85.6895 21.016ZM86.5855 22.184V31H84.7615V22.184H86.5855ZM91.1083 23.672V28.552C91.1083 28.8827 91.1829 29.1227 91.3323 29.272C91.4923 29.4107 91.7589 29.48 92.1323 29.48H93.2523V31H91.8123C90.9909 31 90.3616 30.808 89.9243 30.424C89.4869 30.04 89.2683 29.416 89.2683 28.552V23.672H88.2283V22.184H89.2683V19.992H91.1083V22.184H93.2523V23.672H91.1083ZM96.7574 23.464C97.0241 23.016 97.3761 22.6693 97.8134 22.424C98.2614 22.168 98.7894 22.04 99.3974 22.04V23.928H98.9334C98.2187 23.928 97.6747 24.1093 97.3014 24.472C96.9387 24.8347 96.7574 25.464 96.7574 26.36V31H94.9334V22.184H96.7574V23.464ZM100.466 26.552C100.466 25.6667 100.647 24.8827 101.01 24.2C101.383 23.5173 101.885 22.9893 102.514 22.616C103.154 22.232 103.858 22.04 104.626 22.04C105.319 22.04 105.922 22.1787 106.434 22.456C106.957 22.7227 107.373 23.0587 107.682 23.464V22.184H109.522V31H107.682V29.688C107.373 30.104 106.951 30.4507 106.418 30.728C105.885 31.0053 105.277 31.144 104.594 31.144C103.837 31.144 103.143 30.952 102.514 30.568C101.885 30.1733 101.383 29.6293 101.01 28.936C100.647 28.232 100.466 27.4373 100.466 26.552ZM107.682 26.584C107.682 25.976 107.554 25.448 107.298 25C107.053 24.552 106.727 24.2107 106.322 23.976C105.917 23.7413 105.479 23.624 105.01 23.624C104.541 23.624 104.103 23.7413 103.698 23.976C103.293 24.2 102.962 24.536 102.706 24.984C102.461 25.4213 102.338 25.944 102.338 26.552C102.338 27.16 102.461 27.6933 102.706 28.152C102.962 28.6107 103.293 28.9627 103.698 29.208C104.114 29.4427 104.551 29.56 105.01 29.56C105.479 29.56 105.917 29.4427 106.322 29.208C106.727 28.9733 107.053 28.632 107.298 28.184C107.554 27.7253 107.682 27.192 107.682 26.584ZM111.31 26.552C111.31 25.6667 111.491 24.8827 111.854 24.2C112.227 23.5173 112.728 22.9893 113.358 22.616C113.998 22.232 114.707 22.04 115.486 22.04C116.062 22.04 116.627 22.168 117.182 22.424C117.747 22.6693 118.195 23 118.526 23.416V19.16H120.366V31H118.526V29.672C118.227 30.0987 117.811 30.4507 117.278 30.728C116.755 31.0053 116.152 31.144 115.47 31.144C114.702 31.144 113.998 30.952 113.358 30.568C112.728 30.1733 112.227 29.6293 111.854 28.936C111.491 28.232 111.31 27.4373 111.31 26.552ZM118.526 26.584C118.526 25.976 118.398 25.448 118.142 25C117.896 24.552 117.571 24.2107 117.166 23.976C116.76 23.7413 116.323 23.624 115.854 23.624C115.384 23.624 114.947 23.7413 114.542 23.976C114.136 24.2 113.806 24.536 113.55 24.984C113.304 25.4213 113.182 25.944 113.182 26.552C113.182 27.16 113.304 27.6933 113.55 28.152C113.806 28.6107 114.136 28.9627 114.542 29.208C114.958 29.4427 115.395 29.56 115.854 29.56C116.323 29.56 116.76 29.4427 117.166 29.208C117.571 28.9733 117.896 28.632 118.142 28.184C118.398 27.7253 118.526 27.192 118.526 26.584ZM130.842 26.376C130.842 26.7067 130.82 27.0053 130.778 27.272H124.042C124.095 27.976 124.356 28.5413 124.826 28.968C125.295 29.3947 125.871 29.608 126.554 29.608C127.535 29.608 128.228 29.1973 128.634 28.376H130.602C130.335 29.1867 129.85 29.8533 129.146 30.376C128.452 30.888 127.588 31.144 126.554 31.144C125.711 31.144 124.954 30.9573 124.282 30.584C123.62 30.2 123.098 29.6667 122.714 28.984C122.34 28.2907 122.154 27.4907 122.154 26.584C122.154 25.6773 122.335 24.8827 122.698 24.2C123.071 23.5067 123.588 22.9733 124.25 22.6C124.922 22.2267 125.69 22.04 126.554 22.04C127.386 22.04 128.127 22.2213 128.778 22.584C129.428 22.9467 129.935 23.4587 130.298 24.12C130.66 24.7707 130.842 25.5227 130.842 26.376ZM128.938 25.8C128.927 25.128 128.687 24.5893 128.218 24.184C127.748 23.7787 127.167 23.576 126.474 23.576C125.844 23.576 125.306 23.7787 124.858 24.184C124.41 24.5787 124.143 25.1173 124.058 25.8H128.938ZM143.337 19.88V21.368H138.617V24.648H142.297V26.136H138.617V31H136.793V19.88H143.337ZM150.131 25.448L153.587 31H151.539L149.027 26.968L146.675 31H144.643L148.099 25.448L144.627 19.88H146.675L149.203 23.944L151.571 19.88H153.603L150.131 25.448Z" fill="#313131"/>
</svg>
