<svg width="207" height="68" viewBox="0 0 207 68" fill="none" xmlns="http://www.w3.org/2000/svg">
<path d="M17.201 24.0946C17.201 29.0792 17.2137 34.0655 17.201 39.0501C17.1931 41.0344 16.4994 42.7664 15.1992 44.2887C13.2705 46.5366 10.8099 47.4525 7.91595 47.2874C6.21737 47.1906 4.69657 46.5525 3.35041 45.5095C1.76294 44.2824 0.775539 42.6679 0.29295 40.7376C0.108139 39.9929 0.0148479 39.2284 0.0151442 38.4611C0.00244445 28.2919 -0.0166024 18.1242 0.0278466 7.95646C0.0357839 6.0515 0.853327 4.38625 2.10107 2.95277C3.27017 1.60646 4.83566 0.665058 6.57295 0.263614C8.85731 -0.296761 11.0083 0.0747035 13.0085 1.26848C15.231 2.59718 16.5819 4.55929 17.0248 7.11828C17.1307 7.67959 17.1886 8.2489 17.1978 8.82004C17.2058 13.9079 17.1994 19.0004 17.201 24.0946Z" fill="#00FFD1"/>
<path d="M51.4235 8.85016C51.4235 6.08162 51.4235 3.31414 51.4235 0.547723C51.4235 0.139745 51.3394 -0.00312331 50.8981 5.16142e-05C48.0899 0.0206886 45.2816 5.08394e-05 42.4734 0.0191004C42.0113 0.037782 41.5517 0.097817 41.1003 0.198484C39.252 0.541111 37.5738 1.49827 36.3379 2.91463C35.0187 4.37986 34.2361 6.0975 34.2297 8.06119C34.2012 19.1131 34.2202 30.165 34.2107 41.2169C34.2069 41.8416 34.1479 42.4647 34.0345 43.079C33.8456 44.1299 33.5709 45.1618 33.2868 46.1936C32.5618 48.8167 31.404 51.3003 29.861 53.542C27.8992 56.4123 25.362 58.8434 22.4105 60.6809C19.4591 62.5184 16.1579 63.7223 12.7164 64.2161C12.7388 64.288 12.7784 64.3534 12.8318 64.4065C12.8852 64.4597 12.9508 64.4989 13.0228 64.5209C16.5191 66.4122 20.4067 67.4658 24.3795 67.599C25.581 67.6473 26.7842 67.6251 27.9831 67.5323C29.5281 67.4125 31.0605 67.1645 32.5645 66.791C36.6379 65.7702 40.1843 63.7653 43.2941 60.9666C45.8488 58.6059 47.8879 55.7427 49.2836 52.5566C50.6792 49.3705 51.4013 45.9303 51.4045 42.452C51.4235 36.6313 51.4315 30.8074 51.4283 24.9804H60.3991C61.66 24.9804 62.9086 24.732 64.0736 24.2494C65.2385 23.7668 66.297 23.0594 67.1885 22.1677C68.0801 21.276 68.7873 20.2175 69.2697 19.0524C69.7521 17.8874 70.0002 16.6388 70 15.3778V8.85016H51.4235Z" fill="#F8FBF8"/>
<path d="M84.2034 26.022V35.768C84.2034 36.9267 84.504 37.7993 85.1054 38.386C85.7214 38.9727 86.5721 39.266 87.6574 39.266C88.7574 39.266 89.608 38.9727 90.2094 38.386C90.8254 37.7993 91.1334 36.9267 91.1334 35.768V26.022H93.6414V35.724C93.6414 36.9707 93.3701 38.0267 92.8274 38.892C92.2847 39.7573 91.5587 40.4027 90.6494 40.828C89.7401 41.2533 88.7354 41.466 87.6354 41.466C86.5354 41.466 85.5307 41.2533 84.6214 40.828C83.7267 40.4027 83.0154 39.7573 82.4874 38.892C81.9594 38.0267 81.6954 36.9707 81.6954 35.724V26.022H84.2034ZM103.023 28.992C103.976 28.992 104.827 29.19 105.575 29.586C106.338 29.982 106.932 30.5687 107.357 31.346C107.782 32.1233 107.995 33.062 107.995 34.162V41.312H105.509V34.536C105.509 33.4507 105.238 32.622 104.695 32.05C104.152 31.4633 103.412 31.17 102.473 31.17C101.534 31.17 100.786 31.4633 100.229 32.05C99.6862 32.622 99.4148 33.4507 99.4148 34.536V41.312H96.9068V29.19H99.4148V30.576C99.8255 30.0773 100.346 29.6887 100.977 29.41C101.622 29.1313 102.304 28.992 103.023 28.992ZM112.47 27.584C112.015 27.584 111.634 27.43 111.326 27.122C111.018 26.814 110.864 26.4327 110.864 25.978C110.864 25.5233 111.018 25.142 111.326 24.834C111.634 24.526 112.015 24.372 112.47 24.372C112.91 24.372 113.284 24.526 113.592 24.834C113.9 25.142 114.054 25.5233 114.054 25.978C114.054 26.4327 113.9 26.814 113.592 27.122C113.284 27.43 112.91 27.584 112.47 27.584ZM113.702 29.19V41.312H111.194V29.19H113.702ZM119.921 31.236V37.946C119.921 38.4007 120.023 38.7307 120.229 38.936C120.449 39.1267 120.815 39.222 121.329 39.222H122.869V41.312H120.889C119.759 41.312 118.894 41.048 118.293 40.52C117.691 39.992 117.391 39.134 117.391 37.946V31.236H115.961V29.19H117.391V26.176H119.921V29.19H122.869V31.236H119.921ZM127.688 30.95C128.055 30.334 128.539 29.8573 129.14 29.52C129.756 29.168 130.482 28.992 131.318 28.992V31.588H130.68C129.698 31.588 128.95 31.8373 128.436 32.336C127.938 32.8347 127.688 33.7 127.688 34.932V41.312H125.18V29.19H127.688V30.95ZM132.788 35.196C132.788 33.9787 133.037 32.9007 133.536 31.962C134.049 31.0233 134.738 30.2973 135.604 29.784C136.484 29.256 137.452 28.992 138.508 28.992C139.461 28.992 140.29 29.1827 140.994 29.564C141.712 29.9307 142.284 30.3927 142.71 30.95V29.19H145.24V41.312H142.71V39.508C142.284 40.08 141.705 40.5567 140.972 40.938C140.238 41.3193 139.402 41.51 138.464 41.51C137.422 41.51 136.469 41.246 135.604 40.718C134.738 40.1753 134.049 39.4273 133.536 38.474C133.037 37.506 132.788 36.4133 132.788 35.196ZM142.71 35.24C142.71 34.404 142.534 33.678 142.182 33.062C141.844 32.446 141.397 31.9767 140.84 31.654C140.282 31.3313 139.681 31.17 139.036 31.17C138.39 31.17 137.789 31.3313 137.232 31.654C136.674 31.962 136.22 32.424 135.868 33.04C135.53 33.6413 135.362 34.36 135.362 35.196C135.362 36.032 135.53 36.7653 135.868 37.396C136.22 38.0267 136.674 38.5107 137.232 38.848C137.804 39.1707 138.405 39.332 139.036 39.332C139.681 39.332 140.282 39.1707 140.84 38.848C141.397 38.5253 141.844 38.056 142.182 37.44C142.534 36.8093 142.71 36.076 142.71 35.24ZM147.698 35.196C147.698 33.9787 147.947 32.9007 148.446 31.962C148.959 31.0233 149.648 30.2973 150.514 29.784C151.394 29.256 152.369 28.992 153.44 28.992C154.232 28.992 155.009 29.168 155.772 29.52C156.549 29.8573 157.165 30.312 157.62 30.884V25.032H160.15V41.312H157.62V39.486C157.209 40.0727 156.637 40.5567 155.904 40.938C155.185 41.3193 154.356 41.51 153.418 41.51C152.362 41.51 151.394 41.246 150.514 40.718C149.648 40.1753 148.959 39.4273 148.446 38.474C147.947 37.506 147.698 36.4133 147.698 35.196ZM157.62 35.24C157.62 34.404 157.444 33.678 157.092 33.062C156.754 32.446 156.307 31.9767 155.75 31.654C155.192 31.3313 154.591 31.17 153.946 31.17C153.3 31.17 152.699 31.3313 152.142 31.654C151.584 31.962 151.13 32.424 150.778 33.04C150.44 33.6413 150.272 34.36 150.272 35.196C150.272 36.032 150.44 36.7653 150.778 37.396C151.13 38.0267 151.584 38.5107 152.142 38.848C152.714 39.1707 153.315 39.332 153.946 39.332C154.591 39.332 155.192 39.1707 155.75 38.848C156.307 38.5253 156.754 38.056 157.092 37.44C157.444 36.8093 157.62 36.076 157.62 35.24ZM174.554 34.954C174.554 35.4087 174.525 35.8193 174.466 36.186H165.204C165.277 37.154 165.637 37.9313 166.282 38.518C166.927 39.1047 167.719 39.398 168.658 39.398C170.007 39.398 170.961 38.8333 171.518 37.704H174.224C173.857 38.8187 173.19 39.7353 172.222 40.454C171.269 41.158 170.081 41.51 168.658 41.51C167.499 41.51 166.458 41.2533 165.534 40.74C164.625 40.212 163.906 39.4787 163.378 38.54C162.865 37.5867 162.608 36.4867 162.608 35.24C162.608 33.9933 162.857 32.9007 163.356 31.962C163.869 31.0087 164.581 30.2753 165.49 29.762C166.414 29.2487 167.47 28.992 168.658 28.992C169.802 28.992 170.821 29.2413 171.716 29.74C172.611 30.2387 173.307 30.9427 173.806 31.852C174.305 32.7467 174.554 33.7807 174.554 34.954ZM171.936 34.162C171.921 33.238 171.591 32.4973 170.946 31.94C170.301 31.3827 169.501 31.104 168.548 31.104C167.683 31.104 166.942 31.3827 166.326 31.94C165.71 32.4827 165.343 33.2233 165.226 34.162H171.936ZM191.735 26.022V28.068H185.245V32.578H190.305V34.624H185.245V41.312H182.737V26.022H191.735ZM201.077 33.678L205.829 41.312H203.013L199.559 35.768L196.325 41.312H193.531L198.283 33.678L193.509 26.022H196.325L199.801 31.61L203.057 26.022H205.851L201.077 33.678Z" fill="#F8FBF8"/>
</svg>
