<svg width="342" height="269" viewBox="0 0 342 269" fill="none" xmlns="http://www.w3.org/2000/svg">
<g clip-path="url(#clip0_215_382)">
<rect width="342" height="362" rx="30" fill="#F8FBF8"/>
<rect width="380" height="400" rx="30" fill="#001D56"/>
<path d="M96.2483 140.752H69.4706C65.6622 142.061 67.0903 146.356 68.2804 148.339C86.4794 180.522 123.74 246.405 127.192 252.475C130.643 258.545 135.77 255.004 137.903 252.475C151.936 226.243 180.36 173.094 181.788 170.356C183.217 167.619 185.061 167.133 185.805 167.232H202.169C201.773 182.357 201.723 216.087 204.698 230.011C208.417 247.417 230.69 249.395 249.923 255.897C266.5 261.5 280 248.5 276.701 236.855C273.446 225.364 263.907 224.507 249.923 224.358C238.736 224.239 235.84 213.3 235.79 207.845V167.232H254.981C258.789 167.232 260.138 163.563 260.337 161.728V145.513C260.337 141.466 256.469 140.653 254.535 140.752H235.939V112.784C235.939 106.715 231.377 105.197 229.096 105.197C223.641 105.048 211.571 104.84 206.93 105.197C202.288 105.554 201.822 110.404 202.169 112.784V140.752H164.085C159.682 140.752 157.887 143.926 157.54 145.513L132.25 202.787C125.357 187.911 110.679 156.194 107.108 148.339C103.538 140.484 98.3806 140.008 96.2483 140.752Z" fill="#F8FBF8"/>
<path d="M277.5 240.5C277.5 249.06 269.837 256 261 256C252.163 256 245 249.06 245 240.5C245 231.94 252.163 225 261 225C269.837 225 277.5 231.94 277.5 240.5Z" fill="#00F2FF"/>
</g>
<defs>
<clipPath id="clip0_215_382">
<rect width="342" height="362" rx="30" fill="white"/>
</clipPath>
</defs>
</svg>
